<?xml version="1.0" standalone="yes"?>

<svg version="1.1" viewBox="0.0 0.0 235.0 103.0" fill="none" stroke="none" stroke-linecap="square" stroke-miterlimit="10" xmlns="http://www.w3.org/2000/svg" xmlns:xlink="http://www.w3.org/1999/xlink"><clipPath id="p.0"><path d="m0 0l235.0 0l0 103.0l-235.0 0l0 -103.0z" clip-rule="nonzero"></path></clipPath><g clip-path="url(#p.0)"><path fill="#000000" fill-opacity="0.0" d="m0 0l235.69817 0l0 103.98425l-235.69817 0z" fill-rule="nonzero"></path><path fill="#000000" fill-opacity="0.0" d="m8.577428 24.740158l216.7559 0l0 48.0l-216.7559 0z" fill-rule="nonzero"></path><path fill="#000000" d="m54.215145 61.827034q-1.734375 -2.203125 -2.953125 -5.15625q-1.203125 -2.953125 -1.203125 -6.109375q0 -2.796875 0.90625 -5.34375q1.046875 -2.96875 3.25 -5.90625l1.515625 0q-1.421875 2.4375 -1.875 3.46875q-0.71875 1.625 -1.125 3.375q-0.5 2.203125 -0.5 4.40625q0 5.640625 3.5 11.265625l-1.515625 0zm2.5546875 -5.046875l4.546875 -6.46875l-4.203125 -5.984375l2.640625 0l1.90625 2.921875q0.546875 0.828125 0.875 1.390625q0.515625 -0.765625 0.9375 -1.359375l2.1093788 -2.953125l2.515625 0l-4.296879 5.859375l4.625004 6.59375l-2.59375 0l-2.5468788 -3.875l-0.6875 -1.03125l-3.265625 4.90625l-2.5625 0zm24.511723 -2.78125l0 -4.703125l-4.671875 0l0 -1.96875l4.671875 0l0 -4.6875l1.984375 0l0 4.6875l4.6875 0l0 1.96875l-4.6875 0l0 4.703125l-1.984375 0zm15.683594 -1.75l2.109375 -0.28125q0.359375 1.78125 1.234375 2.578125q0.875 0.796875 2.125 0.796875q1.484375 0 2.5 -1.03125q1.03125 -1.03125 1.03125 -2.5625q0 -1.453125 -0.953125 -2.390625q-0.9375 -0.953125 -2.40625 -0.953125q-0.59375 0 -1.484375 0.234375l0.234375 -1.84375q0.203125 0.015625 0.34375 0.015625q1.34375 0 2.421875 -0.703125q1.078125 -0.703125 1.078125 -2.15625q0 -1.171875 -0.796875 -1.921875q-0.78125 -0.765625 -2.015625 -0.765625q-1.234375 0 -2.0625 0.78125q-0.8125 0.765625 -1.046875 2.3125l-2.109375 -0.375q0.390625 -2.125 1.75 -3.28125q1.375 -1.171875 3.421875 -1.171875q1.40625 0 2.578125 0.609375q1.1875 0.59375 1.8125 1.640625q0.640625 1.046875 0.640625 2.21875q0 1.109375 -0.609375 2.03125q-0.59375 0.90625 -1.765625 1.4375q1.53125 0.359375 2.375 1.46875q0.84375 1.109375 0.84375 2.765625q0 2.25 -1.640625 3.828125q-1.640625 1.5625 -4.15625 1.5625q-2.265625 0 -3.765625 -1.34375q-1.484375 -1.359375 -1.6875 -3.5zm15.300781 9.578125l-1.515625 0q3.5 -5.625 3.5 -11.265625q0 -2.203125 -0.5 -4.359375q-0.390625 -1.765625 -1.109375 -3.375q-0.453125 -1.0625 -1.890625 -3.515625l1.515625 0q2.203125 2.9375 3.25 5.90625q0.90625 2.546875 0.90625 5.34375q0 3.15625 -1.21875 6.109375q-1.203125 2.953125 -2.9375 5.15625zm10.6328125 0q-1.734375 -2.203125 -2.953125 -5.15625q-1.203125 -2.953125 -1.203125 -6.109375q0 -2.796875 0.90625 -5.34375q1.046875 -2.96875 3.25 -5.90625l1.515625 0q-1.421875 2.4375 -1.875 3.46875q-0.71875 1.625 -1.125 3.375q-0.5 2.203125 -0.5 4.40625q0 5.640625 3.5 11.265625l-1.515625 0zm14.4609375 -7.078125l0 2.03125l-11.34375 0q-0.03125 -0.765625 0.234375 -1.46875q0.4375 -1.15625 1.390625 -2.28125q0.953125 -1.125 2.765625 -2.609375q2.796875 -2.296875 3.78125 -3.625q0.984375 -1.34375 0.984375 -2.546875q0 -1.25 -0.90625 -2.109375q-0.890625 -0.859375 -2.328125 -0.859375q-1.515625 0 -2.4375 0.921875q-0.90625 0.90625 -0.921875 2.515625l-2.171875 -0.21875q0.21875 -2.421875 1.671875 -3.6875q1.453125 -1.28125 3.90625 -1.28125q2.46875 0 3.90625 1.375q1.453125 1.359375 1.453125 3.390625q0 1.03125 -0.421875 2.03125q-0.421875 1.0 -1.40625 2.109375q-0.96875 1.09375 -3.25 3.015625q-1.890625 1.59375 -2.4375 2.15625q-0.53125 0.5625 -0.890625 1.140625l8.421875 0zm7.890625 -3.34375l0 -1.6875l13.34375 0l0 1.6875l-13.34375 0zm20.234375 5.375l4.546875 -6.46875l-4.203125 -5.984375l2.640625 0l1.90625 2.921875q0.546875 0.828125 0.875 1.390625q0.515625 -0.765625 0.9375 -1.359375l2.109375 -2.953125l2.515625 0l-4.296875 5.859375l4.625 6.59375l-2.59375 0l-2.546875 -3.875l-0.6875 -1.03125l-3.265625 4.90625l-2.5625 0zm14.796875 5.046875l-1.515625 0q3.5 -5.625 3.5 -11.265625q0 -2.203125 -0.5 -4.359375q-0.390625 -1.765625 -1.109375 -3.375q-0.453125 -1.0625 -1.890625 -3.515625l1.515625 0q2.203125 2.9375 3.25 5.90625q0.90625 2.546875 0.90625 5.34375q0 3.15625 -1.21875 6.109375q-1.203125 2.953125 -2.9375 5.15625z" fill-rule="nonzero"></path><path fill="#000000" fill-opacity="0.0" d="m62.228348 30.104877c6.7957153 -1.7887135 29.507439 -11.089676 40.774277 -10.732283c11.266838 0.35739136 22.355644 10.730534 26.826767 12.876638" fill-rule="nonzero"></path><path stroke="#0000ff" stroke-width="1.0" stroke-linejoin="round" stroke-linecap="butt" d="m62.228348 30.104877c6.7957077 -1.7887154 29.507431 -11.089676 40.774277 -10.732283c5.6334305 0.17869568 11.222336 2.8613281 15.961777 5.7675514c2.3697205 1.4531116 4.5270767 2.962122 6.3714523 4.2419815c0.4610901 0.31996727 0.90262604 0.62561035 1.3230209 0.9124794l0.24668884 0.16685295" fill-rule="evenodd"></path><path fill="#0000ff" stroke="#0000ff" stroke-width="1.0" stroke-linecap="butt" d="m126.90556 30.46146l-1.5460892 0.3727913l3.2226944 0.65236664l-2.0493927 -2.571251z" fill-rule="evenodd"></path><path fill="#000000" fill-opacity="0.0" d="m63.301838 30.104877c12.160976 -3.398075 55.260715 -20.745844 72.96588 -20.38845c17.70517 0.35739326 27.720917 18.77734 33.26509 22.532806" fill-rule="nonzero"></path><path stroke="#0000ff" stroke-width="1.0" stroke-linejoin="round" stroke-linecap="butt" d="m63.301838 30.104877c12.160984 -3.398075 55.260715 -20.745844 72.96588 -20.38845c8.852585 0.17869663 15.782806 4.8730326 21.192917 9.992127c2.7050476 2.5595455 5.030075 5.2252846 7.025345 7.4858494c0.49882507 0.5651417 0.97702026 1.1049614 1.4354095 1.6114674c0.22918701 0.25325203 0.45343018 0.49817657 0.6728058 0.7337742c0.109695435 0.11779785 0.21817017 0.23326492 0.32543945 0.34627533l0.06681824 0.069625854" fill-rule="evenodd"></path><path fill="#0000ff" stroke="#0000ff" stroke-width="1.0" stroke-linecap="butt" d="m166.98645 29.955544l-1.5882263 0.08291054l3.0483856 1.2323532l-1.5430603 -2.9035034z" fill-rule="evenodd"></path><path fill="#000000" fill-opacity="0.0" d="m103.002625 65.514435c3.2174072 1.7769012 14.324585 10.8919525 19.304459 10.661415c4.9798813 -0.23052979 8.812332 -10.037178 10.574814 -12.044617" fill-rule="nonzero"></path><path stroke="#0000ff" stroke-width="1.0" stroke-linejoin="round" stroke-linecap="butt" d="m103.002625 65.514435c3.2174072 1.7769012 14.324585 10.8919525 19.304459 10.661415c2.4899368 -0.11526489 4.693016 -2.6245575 6.493927 -5.3559647c0.45022583 -0.6828537 0.87532043 -1.3795929 1.273468 -2.0562668c0.19908142 -0.3383484 0.39143372 -0.671669 0.57681274 -0.99573517l0.41531372 -0.72982025" fill-rule="evenodd"></path><path fill="#0000ff" stroke="#0000ff" stroke-width="1.0" stroke-linecap="butt" d="m131.0666 67.03806l0.3581848 1.5495453l0.6827545 -3.2164001l-2.5904846 2.0250397z" fill-rule="evenodd"></path><path fill="#000000" fill-opacity="0.0" d="m103.002625 65.30971c6.6093597 4.1124268 29.009628 24.169731 39.656174 24.674545c10.646545 0.50481415 20.185913 -18.038055 24.223099 -21.645668" fill-rule="nonzero"></path><path stroke="#0000ff" stroke-width="1.0" stroke-linejoin="round" stroke-linecap="butt" d="m103.002625 65.30971c6.6093674 4.1124268 29.009628 24.169739 39.656174 24.674545c5.3232574 0.25239563 10.369751 -4.2571106 14.590057 -9.280678c2.1101532 -2.5117874 4.013748 -5.1520844 5.642166 -7.389908c0.40708923 -0.5594559 0.7969971 -1.0937576 1.1686249 -1.5946121c0.18580627 -0.25041962 0.36705017 -0.49248505 0.54359436 -0.72515106l0.04396057 -0.057037354" fill-rule="evenodd"></path><path fill="#0000ff" stroke="#0000ff" stroke-width="1.0" stroke-linecap="butt" d="m164.6472 70.93686l0.11930847 1.5859222l1.1621246 -3.0758438l-2.8673553 1.60923z" fill-rule="evenodd"></path></g></svg>

